# xmcd CD database file
#
# Track frame offsets:
#	150
#	19629
#	33637
#	48675
#	65968
#	79680
#	98137
#	110204
#	128192
#	143686
#	161916
#	179343
#
# Disc length: 2618 seconds
#
# Revision: 0
# Processed by: cddbd v1.5.2PL0 Copyright (c) Steve Scherf et al.
# Submitted via: ACXtractor (MTCDDB.DLL V2003.07.15)
#
DISCID=af0a380c
DTITLE=Tom Maxwell - Sometimes
DYEAR=2005
DGENRE=Country
TTITLE0=Each time I Hear a Train
TTITLE1=Rodeo Romeo
TTITLE2=Roan Stag in the Lead
TTITLE3=Lonesome Rodeo Cowboy
TTITLE4=Young Australian Ringer
TTITLE5=One Lifetime not Enough
TTITLE6=Fair Enough
TTITLE7=Every Road I Travel
TTITLE8=Throw Yourself on him and Ride
TTITLE9=TitleMay there Always be a Drover
TTITLE10=Decent Steel
TTITLE11=Sometimes
EXTD=ID3G:   2 YEAR: 2005
EXTT0=
EXTT1=
EXTT2=
EXTT3=
EXTT4=
EXTT5=
EXTT6=
EXTT7=
EXTT8=
EXTT9=
EXTT10=
EXTT11=
PLAYORDER=
